<?xml version="1.0" standalone="no"?>
<!DOCTYPE svg PUBLIC "-//W3C//DTD SVG 20010904//EN"
 "http://www.w3.org/TR/2001/REC-SVG-20010904/DTD/svg10.dtd">
<svg version="1.0" xmlns="http://www.w3.org/2000/svg"
 width="2048.000000pt" height="2048.000000pt" viewBox="0 0 2048.000000 2048.000000"
 preserveAspectRatio="xMidYMid meet">

<g transform="translate(0.000000,2048.000000) scale(0.100000,-0.100000)"
fill="#000000" stroke="none">
<path d="M9755 14390 c-482 -18 -863 -71 -1192 -165 -565 -163 -1016 -432
-1418 -846 -511 -528 -810 -1204 -900 -2032 -53 -498 -58 -1501 -9 -2072 28
-338 81 -641 155 -890 65 -222 149 -426 149 -364 0 22 257 535 345 689 314
551 649 917 1033 1127 243 134 523 181 787 134 167 -30 320 -75 455 -134 163
-71 288 -142 680 -389 184 -116 476 -265 602 -306 113 -37 306 -72 398 -72
213 1 442 75 638 207 148 100 344 296 516 517 89 115 104 141 102 179 -1 15 3
27 9 27 5 0 3 5 -5 10 -13 8 -15 156 -18 1214 -2 1182 -2 1206 18 1258 58 154
234 251 397 218 111 -23 190 -82 244 -182 l34 -63 3 -783 2 -783 148 149 c265
269 461 391 735 457 161 40 376 43 511 9 l23 -5 -19 118 c-88 554 -300 1057
-630 1493 -361 479 -881 858 -1448 1054 -346 121 -626 177 -1047 211 -222 18
-990 27 -1298 15z m1807 -448 c77 -38 130 -92 167 -171 l26 -56 3 -1535 c2
-844 0 -1594 -3 -1667 l-7 -131 -30 10 c-18 7 -27 15 -24 24 3 8 1 14 -4 14
-6 0 -10 -5 -10 -12 0 -6 -3 -9 -6 -5 -4 3 -36 -20 -73 -52 -128 -114 -303
-217 -454 -270 -65 -23 -89 -27 -93 -18 -2 7 -3 829 -2 1827 l3 1815 26 55
c65 139 183 212 334 208 68 -3 91 -8 147 -36z m-2050 -256 c65 -31 140 -107
171 -174 l22 -47 -1 -1637 c0 -901 -2 -1640 -5 -1642 -3 -3 -80 21 -171 54
-163 58 -387 121 -480 135 l-48 7 0 1507 c0 1669 -4 1574 65 1678 39 58 106
109 180 136 73 26 192 18 267 -17z m-1059 -1982 c66 -22 158 -110 194 -182
l28 -57 3 -470 c2 -258 0 -494 -3 -522 l-6 -53 -60 0 c-163 0 -385 -42 -549
-104 l-91 -33 3 591 3 591 27 57 c45 96 137 173 235 198 51 12 157 5 216 -16z
m2079 -307 c66 -32 141 -109 171 -175 22 -46 22 -55 25 -634 l3 -586 -67 -7
c-107 -12 -296 3 -459 36 -82 17 -156 34 -163 38 -17 10 -20 1054 -3 1118 25
93 122 193 220 227 73 25 203 17 273 -17z m-3084 -542 c72 -39 146 -121 167
-186 10 -28 18 -86 19 -132 2 -119 -7 -369 -11 -324 -2 20 -8 35 -14 32 -5 -4
-9 -2 -9 4 0 5 6 12 13 15 6 3 1 3 -13 0 -14 -4 -26 -11 -28 -15 -2 -5 -8 -9
-13 -9 -6 0 -7 6 -3 13 5 8 2 8 -9 -2 -13 -11 -17 -11 -17 -1 0 8 -3 10 -6 7
-4 -4 -1 -14 7 -24 12 -15 12 -16 -4 -10 -10 4 -25 7 -34 7 -12 0 -12 2 1 16
26 25 18 29 -9 4 l-25 -23 -8 23 -9 24 -5 -22 c-4 -12 -2 -20 3 -16 5 3 9 3 9
0 0 -2 3 -12 7 -21 5 -16 4 -15 -15 1 -12 10 -23 30 -23 44 -1 16 -3 19 -6 8
-4 -15 -6 -15 -24 3 -19 19 -22 19 -37 6 -13 -12 -22 -13 -35 -5 -11 5 -30 8
-43 5 -13 -2 -24 0 -24 4 0 5 -6 9 -14 9 -8 0 -16 6 -19 13 -2 6 -8 9 -12 5
-4 -4 6 -19 21 -35 32 -32 32 -35 7 -44 -11 -3 -23 0 -31 10 -12 14 -13 14 -8
-2 4 -11 2 -16 -5 -12 -5 4 -7 15 -4 26 10 31 -4 43 -27 22 -21 -18 -21 -18
-14 12 6 24 5 28 -5 18 -15 -15 -33 -17 -24 -4 3 6 -13 9 -37 8 -27 -1 -43 2
-43 10 0 21 -15 27 -15 6 0 -13 -6 -20 -15 -19 -23 3 -31 16 -10 16 14 0 16 3
8 11 -8 8 -17 8 -32 0 -18 -10 -21 -22 -24 -114 -2 -56 -3 20 -3 168 l1 270
27 51 c34 65 114 137 181 164 42 16 70 20 147 17 83 -2 102 -6 148 -32z m-408
-585 c0 -5 -2 -10 -4 -10 -3 0 -8 5 -11 10 -3 6 -1 10 4 10 6 0 11 -4 11 -10z"/>
<path d="M7057 10325 c3 -9 12 -14 20 -11 8 3 20 6 25 6 19 0 2 11 -26 16 -20
3 -24 1 -19 -11z"/>
<path d="M7205 10260 c3 -5 8 -10 11 -10 2 0 4 5 4 10 0 6 -5 10 -11 10 -5 0
-7 -4 -4 -10z"/>
<path d="M8210 9816 c-83 -24 -200 -78 -308 -143 -108 -64 -146 -93 -125 -93
6 0 18 7 26 15 8 8 18 11 22 7 5 -4 5 -1 1 6 -7 11 5 17 27 13 5 -1 6 3 2 9
-3 5 2 10 13 10 10 0 28 9 39 19 20 19 21 19 53 -12 26 -25 33 -28 41 -16 8
11 9 10 7 -5 -2 -10 3 -21 10 -23 6 -3 12 4 13 14 0 11 3 13 6 5 6 -15 -16
-44 -28 -36 -5 3 -9 -2 -9 -11 0 -9 4 -13 10 -10 5 3 20 -1 33 -10 13 -8 27
-12 32 -8 4 5 5 2 1 -4 -6 -10 -13 -10 -34 0 -29 14 -66 12 -57 -4 10 -15 -19
-10 -43 7 -12 8 -22 10 -22 5 0 -6 4 -11 9 -11 5 0 12 -7 15 -16 5 -12 2 -15
-10 -10 -13 5 -15 2 -11 -13 5 -22 -17 -49 -27 -32 -4 5 -2 12 4 16 15 9 12
35 -3 35 -8 0 -22 -9 -33 -21 -18 -20 -18 -21 -1 -34 16 -11 16 -13 2 -19 -9
-3 -14 -2 -11 3 3 4 -4 17 -14 29 -11 12 -20 26 -20 32 0 5 -7 10 -16 10 -15
0 -15 -2 -1 -24 14 -21 15 -25 1 -30 -8 -3 -12 -2 -9 4 3 5 -2 18 -11 29 -14
16 -22 18 -37 9 -14 -7 -17 -7 -13 1 4 6 2 11 -3 11 -6 0 -11 -7 -11 -15 0 -8
-4 -15 -9 -15 -5 0 -7 -10 -4 -22 5 -23 5 -23 -10 -3 -9 11 -11 22 -6 24 6 2
14 14 19 27 6 13 21 29 35 34 15 6 23 15 20 20 -9 15 -134 -91 -256 -217 -116
-120 -260 -308 -409 -532 -134 -202 -136 -205 -59 -144 254 201 515 318 794
354 111 14 390 6 495 -16 202 -41 415 -135 627 -277 227 -151 367 -281 958
-889 132 -136 281 -281 330 -324 495 -426 966 -515 1450 -275 115 57 262 156
250 168 -3 3 -13 -1 -21 -10 -15 -14 -18 -14 -35 3 -11 11 -25 17 -32 13 -9
-5 -9 -3 1 7 14 16 16 39 2 39 -5 0 -7 -8 -4 -17 4 -12 -1 -10 -16 7 l-21 25
11 -24 c11 -21 10 -23 -5 -18 -9 4 -21 7 -26 7 -5 0 -9 5 -9 11 0 5 5 7 10 4
6 -3 10 -2 10 4 0 14 -37 33 -44 23 -6 -10 -52 -10 -62 1 -4 3 3 4 16 2 16 -3
20 0 16 10 -3 8 0 15 6 15 6 0 9 3 6 6 -3 3 -15 0 -27 -8 -16 -10 -23 -10 -33
0 -9 9 -8 12 7 12 16 0 17 2 5 9 -8 6 -18 7 -23 4 -5 -3 -13 1 -18 8 -7 12 -9
12 -9 0 0 -8 10 -26 22 -40 19 -22 18 -21 -9 3 -22 20 -37 26 -50 21 -12 -5
-14 -9 -5 -12 19 -7 14 -19 -8 -19 -18 0 -18 2 -5 23 14 21 14 23 0 23 -27 0
-16 16 13 18 56 3 60 5 60 31 0 14 -6 31 -14 38 -20 20 -29 15 -10 -6 9 -10
14 -25 10 -35 -7 -18 -29 -22 -39 -6 -3 6 -11 10 -16 10 -6 0 -7 -4 -4 -10 3
-5 1 -10 -4 -10 -6 0 -11 8 -11 19 0 11 -7 18 -17 18 -43 0 -46 2 -39 36 4 20
3 27 -3 18 -6 -10 -10 -10 -16 -1 -5 8 -10 8 -14 2 -8 -13 -51 -17 -74 -7 -10
4 -23 2 -32 -5 -12 -10 -13 -7 -9 13 2 16 -1 27 -12 31 -8 3 -13 10 -10 15 3
5 -3 11 -14 14 -26 7 -25 -1 1 -29 l21 -22 -20 -20 c-11 -11 -18 -23 -15 -25
3 -3 -6 -3 -19 1 -18 5 -19 7 -5 10 9 2 15 8 12 13 -4 5 1 9 9 9 9 0 16 4 16
10 0 5 -6 9 -12 7 -7 -1 -12 6 -10 15 3 21 -15 33 -31 19 -9 -7 -21 -6 -39 3
-20 10 -29 11 -38 2 -9 -8 -11 -4 -8 19 2 22 -2 31 -14 33 -11 2 -18 -3 -18
-13 0 -10 5 -13 12 -9 7 4 8 3 4 -4 -8 -13 -36 -5 -36 10 0 5 -5 6 -10 3 -6
-4 -7 -12 -4 -18 4 -7 3 -8 -2 -4 -9 9 -11 14 -13 45 0 10 -14 25 -30 35 -35
21 -46 22 -29 3 7 -8 16 -12 19 -10 4 2 12 -3 19 -11 9 -10 9 -15 1 -15 -6 0
-11 5 -11 12 0 6 -3 8 -6 5 -4 -3 -16 0 -28 8 -28 20 -36 19 -36 -7 0 -21 -1
-21 -14 -3 -8 11 -19 16 -30 12 -9 -4 -15 -3 -12 2 3 5 -4 11 -15 14 -12 3
-19 10 -16 14 6 9 -24 15 -79 17 -21 1 -30 5 -27 14 3 7 -3 12 -17 12 -14 0
-20 -5 -17 -13 3 -8 0 -14 -6 -14 -7 0 -19 -3 -27 -5 -8 -3 -12 -3 -7 -1 4 3
5 9 2 14 -4 5 0 6 8 3 8 -3 17 2 20 10 4 9 16 16 27 16 22 0 27 15 8 26 -7 5
-8 3 -3 -6 6 -10 4 -12 -10 -7 -9 4 -23 3 -29 -2 -14 -12 -42 -9 -57 6 -8 8
-7 13 2 18 8 5 10 4 5 -3 -5 -8 1 -12 15 -12 18 0 20 2 8 16 -10 13 -10 17 2
25 8 5 10 9 4 10 -5 0 4 7 20 14 17 8 24 14 16 15 -7 0 -31 -10 -52 -22 l-39
-21 -18 20 c-14 16 -22 19 -36 11 -16 -9 -17 -8 -6 12 l12 22 22 -21 c23 -22
56 -28 56 -11 0 6 6 10 14 10 8 0 17 7 20 16 3 8 11 12 17 8 8 -4 9 -3 5 5 -4
6 -12 9 -17 6 -5 -4 -9 -1 -9 4 0 6 -9 11 -20 11 -13 0 -18 -5 -14 -15 4 -8
11 -12 17 -8 5 3 7 1 4 -5 -5 -7 -19 -4 -44 8 -21 10 -42 16 -47 13 -5 -4 -6
-1 -2 5 4 7 2 12 -4 12 -6 0 -8 5 -5 10 3 6 -1 10 -9 10 -9 0 -16 5 -16 11 0
6 -7 8 -16 5 -14 -5 -15 -4 -5 8 9 11 8 15 -5 20 -9 4 -19 4 -22 1 -3 -3 0 -5
6 -5 6 0 9 -7 6 -15 -5 -12 -9 -13 -20 -4 -8 7 -17 9 -21 5 -3 -3 -14 1 -24
10 -10 9 -27 14 -39 11 -11 -3 -20 0 -20 5 0 6 -12 8 -30 5 -24 -5 -28 -4 -23
11 5 14 3 14 -17 -3 l-23 -20 12 22 c24 47 0 76 -43 48 -12 -8 -26 -12 -30 -8
-4 4 -4 0 0 -10 3 -9 12 -17 19 -17 9 0 10 -9 2 -40 -6 -22 -15 -40 -20 -40
-4 0 -5 4 -2 10 3 6 -1 7 -9 4 -9 -3 -16 -1 -16 5 0 6 7 11 16 11 8 0 12 5 9
10 -4 6 -10 8 -15 5 -5 -3 -11 -1 -15 5 -9 15 -31 12 -49 -6 -9 -8 -16 -11
-16 -5 0 6 -7 8 -15 5 -8 -4 -15 -1 -15 6 0 8 8 10 21 7 13 -3 19 -1 16 6 -2
7 -20 11 -40 10 -28 -2 -37 2 -42 17 -4 11 -11 20 -16 20 -6 0 -7 5 -3 12 5 7
3 8 -5 3 -7 -4 -11 -15 -8 -26 4 -15 2 -16 -13 -6 -10 6 -16 16 -12 22 3 5 -1
5 -9 -2 -23 -19 -59 -5 -59 22 0 36 -11 56 -36 66 -24 9 -33 29 -13 29 6 0 8
9 4 20 -5 15 -3 18 8 14 18 -6 32 12 17 21 -6 4 -8 11 -5 16 4 5 -3 9 -15 9
-14 0 -19 -4 -14 -12 5 -9 2 -9 -9 1 -20 16 -23 36 -4 25 8 -5 9 -4 2 3 -24
23 -227 133 -236 128 -5 -4 -8 -2 -7 4 2 6 -22 24 -52 41 -30 17 -45 23 -32
14 12 -9 22 -21 22 -26 0 -6 -7 -5 -15 2 -13 10 -15 9 -15 -9 0 -11 -5 -21
-11 -21 -5 0 -7 6 -3 13 5 8 2 8 -9 -2 -9 -7 -17 -9 -17 -3 0 16 -38 2 -43
-17 -4 -15 -5 -15 -6 1 -1 11 -7 15 -20 11 -11 -3 -28 4 -40 16 -12 12 -24 22
-28 24 -5 1 -7 5 -6 9 2 4 -4 5 -13 1 -24 -9 -36 18 -16 34 15 11 15 12 -5 8
-13 -2 -25 1 -28 6 -4 5 -10 7 -14 5 -4 -3 -7 5 -6 17 3 32 -4 40 -23 25 -13
-11 -14 -11 -8 0 4 7 2 20 -6 29 -11 15 -11 15 7 6 15 -9 22 -8 32 5 11 15 12
12 9 -20 -5 -42 0 -49 29 -37 16 6 17 8 3 8 -20 1 -34 20 -22 30 23 16 5 33
-99 89 -315 169 -521 246 -797 298 -237 44 -473 42 -698 -7 -54 -12 -104 -22
-112 -23 -8 0 -17 -3 -20 -6 -3 -3 -66 -32 -141 -63 -93 -40 -174 -83 -253
-137 -64 -43 -116 -76 -116 -74 0 2 9 13 20 24 12 12 18 24 16 29 -8 12 223
235 364 351 180 149 345 252 463 290 33 10 36 14 25 28 -11 15 -11 15 3 4 14
-10 36 -8 125 14 60 14 147 29 194 34 76 6 79 7 28 9 -32 0 -58 6 -58 11 0 6
11 8 24 6 22 -4 24 -2 17 17 -5 12 -17 23 -27 25 -18 3 -18 2 -1 -11 9 -8 17
-18 17 -22 0 -4 -7 -2 -15 5 -12 10 -16 8 -24 -11 l-10 -24 0 24 c-1 14 -9 33
-18 43 -15 17 -15 20 -3 28 8 6 10 10 4 10 -16 0 -37 -27 -25 -32 5 -1 3 -8
-4 -15 -11 -10 -13 -5 -12 25 1 20 5 42 9 47 8 13 -2 65 -13 65 -4 0 -7 9 -6
20 1 13 6 19 15 15 7 -2 10 0 7 5 -4 6 4 14 17 19 33 14 1 11 -52 -3z m1 -58
c11 -21 11 -22 -4 -9 -10 7 -17 17 -17 22 0 15 9 10 21 -13z m20 -45 c13 -16
12 -17 -3 -5 -13 10 -17 10 -20 0 -3 -8 -7 -6 -11 5 -9 23 16 22 34 0z m-44
-37 c2 -20 -2 -36 -10 -39 -15 -6 -17 54 -2 65 6 4 10 8 10 8 0 0 1 -15 2 -34z
m37 5 c3 -5 -1 -14 -9 -21 -10 -9 -15 -9 -15 -1 0 6 6 11 13 11 8 0 7 4 -3 10
-9 6 -10 10 -3 10 6 0 14 -4 17 -9z m-144 -33 c0 -4 -4 -8 -9 -8 -6 0 -12 4
-15 8 -3 5 1 9 9 9 8 0 15 -4 15 -9z m140 -12 c0 -2 -7 -7 -16 -10 -8 -3 -12
-2 -9 4 6 10 25 14 25 6z m53 -30 c4 -10 1 -13 -8 -9 -8 3 -12 9 -9 14 7 12
11 11 17 -5z m1067 -867 c0 -5 -4 -9 -10 -9 -5 0 -10 7 -10 16 0 8 5 12 10 9
6 -3 10 -10 10 -16z m-33 -165 c-3 -3 -12 -4 -19 -1 -8 3 -5 6 6 6 11 1 17 -2
13 -5z m77 -9 c3 -8 1 -15 -4 -15 -6 0 -10 7 -10 15 0 8 2 15 4 15 2 0 6 -7
10 -15z m33 -37 c-3 -8 -6 -5 -6 6 -1 11 2 17 5 13 3 -3 4 -12 1 -19z m228
-86 c-3 -3 -11 0 -18 7 -9 10 -8 11 6 5 10 -3 15 -9 12 -12z m239 -20 c3 -5
-1 -9 -9 -9 -8 0 -12 4 -9 9 3 4 7 8 9 8 2 0 6 -4 9 -8z m491 -233 c8 -12 -13
-69 -26 -69 -8 0 -10 59 -2 73 6 10 21 9 28 -4z m-235 -63 c0 -2 -7 -6 -15
-10 -8 -3 -15 -1 -15 4 0 6 7 10 15 10 8 0 15 -2 15 -4z m125 -6 c-3 -5 -14
-10 -23 -10 -15 0 -15 2 -2 10 20 13 33 13 25 0z m239 -9 c3 -5 -1 -11 -9 -15
-8 -3 -17 0 -21 6 -4 7 -3 8 4 4 7 -4 12 -2 12 3 0 13 7 14 14 2z m-130 -16
c4 -11 -1 -14 -19 -13 -14 1 -25 6 -25 11 0 5 7 7 15 3 8 -3 15 -1 15 4 0 15
7 12 14 -5z m225 -21 c12 -12 -11 -15 -25 -3 -15 12 -16 11 -9 -11 9 -29 3
-25 -15 9 -12 23 -11 23 16 17 16 -4 31 -10 33 -12z m-389 -4 c0 -5 -5 -10
-11 -10 -5 0 -7 5 -4 10 3 6 8 10 11 10 2 0 4 -4 4 -10z m310 -6 c5 -5 -3 -9
-23 -10 -18 -1 -26 1 -19 3 6 3 10 8 7 13 -7 11 23 6 35 -6z m107 -16 c-3 -8
-6 -5 -6 6 -1 11 2 17 5 13 3 -3 4 -12 1 -19z m62 -172 c7 -8 8 -17 3 -19 -4
-3 -13 3 -20 14 -14 22 0 26 17 5z m125 -52 c7 -19 2 -18 -19 6 -16 17 -16 20
-3 15 9 -4 19 -13 22 -21z m-49 -3 c-9 -8 -36 -10 -30 -2 2 4 11 8 20 8 8 0
13 -3 10 -6z m522 -128 c-12 -12 -17 -13 -17 -5 0 8 -5 10 -12 6 -7 -4 -8 -3
-4 4 4 6 13 9 21 5 8 -3 15 1 15 8 0 7 3 9 7 5 4 -3 -1 -14 -10 -23z m-47 -5
c0 -5 -8 -4 -19 1 -10 6 -22 7 -26 3 -5 -4 -5 -2 -2 5 8 13 47 6 47 -9z m267
-58 c-1 -22 -12 -26 -22 -10 -3 6 -1 10 4 10 6 0 11 5 11 10 0 7 -6 7 -19 0
-25 -13 -31 -13 -31 1 0 5 4 8 8 5 4 -2 14 -1 22 4 19 12 29 4 27 -20z m53
-36 c0 -8 -5 -12 -10 -9 -6 4 -8 11 -5 16 9 14 15 11 15 -7z m-93 -9 c0 -8 -4
-15 -9 -15 -10 0 -11 14 -1 23 9 10 10 9 10 -8z m53 5 c0 -5 -10 -10 -22 -9
-22 0 -22 1 -3 9 11 5 21 9 23 9 1 1 2 -3 2 -9z"/>
<path d="M8838 9803 c7 -3 16 -2 19 1 4 3 -2 6 -13 5 -11 0 -14 -3 -6 -6z"/>
<path d="M8880 9790 c8 -5 22 -9 30 -9 10 0 8 3 -5 9 -27 12 -43 12 -25 0z"/>
<path d="M8288 9643 c7 -3 16 -2 19 1 4 3 -2 6 -13 5 -11 0 -14 -3 -6 -6z"/>
<path d="M7955 9594 c-19 -14 -19 -15 2 -11 26 4 38 13 26 20 -4 3 -17 -1 -28
-9z"/>
<path d="M7865 9550 c3 -5 8 -10 11 -10 2 0 4 5 4 10 0 6 -5 10 -11 10 -5 0
-7 -4 -4 -10z"/>
<path d="M7850 9509 c0 -5 5 -7 10 -4 6 3 10 8 10 11 0 2 -4 4 -10 4 -5 0 -10
-5 -10 -11z"/>
<path d="M7795 8894 c-422 -74 -812 -358 -1149 -839 l-88 -125 71 -136 c360
-688 939 -1211 1656 -1499 356 -143 768 -229 1275 -267 217 -16 1036 -15 1305
1 868 53 1553 289 2095 721 58 46 166 145 240 219 74 74 121 122 103 107 -19
-17 -36 -25 -44 -21 -7 5 -10 4 -6 -2 4 -7 -9 -13 -36 -15 -46 -5 -59 -1 -38
11 16 10 3 20 -21 16 -10 -2 -18 3 -18 10 0 7 -10 11 -25 10 -14 -2 -23 1 -19
6 3 5 0 9 -5 9 -6 0 -11 -6 -11 -12 0 -9 -3 -8 -9 2 -6 8 -8 17 -5 21 2 4 0
10 -6 14 -6 4 -5 13 2 25 13 20 3 43 -10 24 -4 -5 -27 -10 -52 -11 -37 0 -48
4 -56 21 -8 18 -7 22 7 23 12 1 16 -3 12 -15 -4 -15 -3 -15 6 -2 6 8 11 21 11
28 0 19 -39 14 -52 -8 -15 -24 -34 -26 -42 -5 -4 11 3 19 19 25 14 5 25 11 25
14 0 6 -23 2 -37 -7 -7 -5 -14 -6 -14 -3 -5 22 -3 32 6 38 6 5 6 8 -2 8 -6 0
-15 -4 -18 -10 -3 -5 -13 -10 -21 -10 -8 0 -12 5 -9 10 3 6 -3 10 -14 10 -11
0 -21 -6 -24 -12 -2 -7 -2 -3 0 10 2 15 -2 22 -12 22 -8 0 -15 6 -15 13 0 7
-3 8 -8 2 -9 -13 -32 -12 -59 3 -17 9 -22 9 -26 -1 -3 -6 -5 -3 -4 9 1 16 6
20 22 17 16 -3 15 -1 -5 9 -14 7 -27 15 -30 19 -8 9 -51 18 -45 9 10 -17 -14
-20 -46 -5 -19 8 -29 14 -24 15 6 0 3 5 -5 10 -13 8 -12 13 4 42 l19 33 -22
-22 c-11 -12 -21 -29 -21 -37 0 -10 -6 -13 -17 -10 -15 5 -15 4 -3 -4 8 -6 18
-8 22 -6 16 10 8 -2 -14 -20 -17 -15 -20 -15 -15 -3 3 9 2 19 -3 22 -6 4 -11
21 -11 38 -1 18 -3 24 -6 14 -3 -10 -9 -14 -16 -10 -22 14 -59 15 -51 2 5 -8
2 -10 -8 -6 -9 3 -21 0 -27 -6 -8 -8 -11 -8 -11 1 0 7 5 12 11 12 5 0 7 4 4
10 -3 6 1 7 9 4 11 -4 16 0 16 11 0 11 -5 15 -15 11 -8 -3 -15 -1 -15 5 0 6
-4 7 -10 4 -5 -3 -10 -2 -10 3 0 13 25 33 32 26 3 -3 5 3 5 13 -1 10 4 17 11
15 8 -1 11 2 8 6 -3 5 31 63 76 128 120 175 325 504 314 504 -2 0 -30 -37 -62
-82 -377 -540 -722 -868 -1063 -1012 -331 -139 -649 -138 -996 3 -271 111
-530 318 -945 756 -528 557 -768 763 -1065 910 -232 115 -404 156 -649 154
-78 0 -177 -7 -221 -15z m4630 -1484 c3 -6 -1 -7 -9 -4 -18 7 -21 14 -7 14 6
0 13 -4 16 -10z m45 0 c0 -5 -4 -10 -10 -10 -5 0 -10 5 -10 10 0 6 5 10 10 10
6 0 10 -4 10 -10z m-10 -40 c0 -5 -5 -10 -11 -10 -5 0 -7 5 -4 10 3 6 8 10 11
10 2 0 4 -4 4 -10z m193 -14 c3 -8 0 -17 -7 -19 -10 -4 -12 1 -9 14 6 23 9 24
16 5z m125 -81 c9 -9 -71 5 -81 15 -5 4 10 4 33 0 22 -4 44 -11 48 -15z m142
-99 c0 -3 -4 -8 -10 -11 -5 -3 -10 -1 -10 4 0 6 5 11 10 11 6 0 10 -2 10 -4z
m95 -46 c3 -6 -1 -7 -9 -4 -18 7 -21 14 -7 14 6 0 13 -4 16 -10z"/>
<path d="M9398 8718 c10 -13 10 -17 0 -21 -7 -3 -3 -4 10 -4 12 1 22 5 22 9 0
4 -10 13 -22 19 -20 11 -22 10 -10 -3z"/>
<path d="M9461 8606 c-14 -16 -4 -46 15 -46 8 0 17 0 22 0 4 0 7 6 7 13 0 6
-5 12 -12 12 -6 0 -15 4 -20 9 -5 5 -3 6 5 2 6 -4 12 -3 12 3 0 17 -17 21 -29
7z"/>
<path d="M9520 8568 c0 -4 7 -8 15 -8 8 0 15 4 15 8 0 5 -7 9 -15 9 -8 0 -15
-4 -15 -9z"/>
<path d="M10007 8369 c7 -7 15 -10 18 -7 3 3 -2 9 -12 12 -14 6 -15 5 -6 -5z"/>
<path d="M10050 8346 c0 -2 7 -7 16 -10 8 -3 12 -2 9 4 -6 10 -25 14 -25 6z"/>
<path d="M10024 8271 c1 -17 6 -29 11 -27 11 3 8 36 -4 49 -5 5 -8 -6 -7 -22z"/>
<path d="M10021 8214 c0 -11 3 -14 6 -6 3 7 2 16 -1 19 -3 4 -6 -2 -5 -13z"/>
<path d="M10246 8217 c3 -10 9 -15 12 -12 3 3 0 11 -7 18 -10 9 -11 8 -5 -6z"/>
<path d="M10180 8211 c0 -5 5 -13 10 -16 6 -3 10 -2 10 4 0 5 -4 13 -10 16 -5
3 -10 2 -10 -4z"/>
<path d="M10163 8196 c1 -11 9 -21 17 -23 10 -3 11 -2 4 4 -6 4 -14 15 -17 23
-5 11 -6 9 -4 -4z"/>
<path d="M10210 8186 c0 -8 5 -18 10 -21 6 -3 10 1 10 9 0 8 -4 18 -10 21 -5
3 -10 -1 -10 -9z"/>
<path d="M10400 8179 c0 -5 5 -7 10 -4 6 3 10 8 10 11 0 2 -4 4 -10 4 -5 0
-10 -5 -10 -11z"/>
<path d="M10450 8166 c0 -2 7 -7 16 -10 8 -3 12 -2 9 4 -6 10 -25 14 -25 6z"/>
<path d="M10510 8140 c8 -5 22 -10 30 -10 13 0 13 1 0 10 -8 5 -22 10 -30 10
-13 0 -13 -1 0 -10z"/>
<path d="M10660 8071 c0 -5 5 -13 10 -16 6 -3 10 -2 10 4 0 5 -4 13 -10 16 -5
3 -10 2 -10 -4z"/>
<path d="M10695 8050 c-3 -5 -1 -10 4 -10 6 0 11 5 11 10 0 6 -2 10 -4 10 -3
0 -8 -4 -11 -10z"/>
<path d="M10885 7890 c3 -5 8 -10 11 -10 2 0 4 5 4 10 0 6 -5 10 -11 10 -5 0
-7 -4 -4 -10z"/>
<path d="M10988 7833 c7 -3 16 -2 19 1 4 3 -2 6 -13 5 -11 0 -14 -3 -6 -6z"/>
<path d="M11165 7810 c3 -5 8 -10 11 -10 2 0 4 5 4 10 0 6 -5 10 -11 10 -5 0
-7 -4 -4 -10z"/>
<path d="M11265 7780 c3 -5 11 -10 16 -10 6 0 7 5 4 10 -3 6 -11 10 -16 10 -6
0 -7 -4 -4 -10z"/>
<path d="M11245 7750 c3 -5 8 -10 11 -10 2 0 4 5 4 10 0 6 -5 10 -11 10 -5 0
-7 -4 -4 -10z"/>
<path d="M11406 7694 c-3 -8 -2 -12 3 -9 5 3 12 1 16 -5 3 -5 12 -10 18 -10 8
0 7 3 -2 9 -7 5 -10 14 -7 20 4 6 1 11 -7 11 -8 0 -18 -7 -21 -16z"/>
<path d="M11546 7642 c-3 -5 1 -9 9 -9 8 0 15 4 15 9 0 4 -4 8 -9 8 -6 0 -12
-4 -15 -8z"/>
<path d="M12039 7493 l-24 -28 28 24 c25 23 32 31 24 31 -2 0 -14 -12 -28 -27z"/>
<path d="M11979 7443 c-13 -16 -12 -17 4 -4 9 7 17 15 17 17 0 8 -8 3 -21 -13z"/>
<path d="M11888 7443 c7 -3 16 -2 19 1 4 3 -2 6 -13 5 -11 0 -14 -3 -6 -6z"/>
<path d="M12700 7381 c0 -6 5 -13 10 -16 6 -3 10 1 10 9 0 9 -4 16 -10 16 -5
0 -10 -4 -10 -9z"/>
<path d="M13085 7190 c4 -6 11 -8 16 -5 14 9 11 15 -7 15 -8 0 -12 -5 -9 -10z"/>
<path d="M13369 7153 l-24 -28 28 24 c25 23 32 31 24 31 -2 0 -14 -12 -28 -27z"/>
<path d="M13070 7124 c6 -6 6 -14 2 -19 -4 -4 3 -1 16 6 29 18 28 29 -2 27
-17 -2 -22 -6 -16 -14z"/>
</g>
</svg>
